<?xml version="1.0" encoding="UTF-8"?>
<svg width="918px" height="828px" viewBox="0 0 918 828" version="1.1" xmlns="http://www.w3.org/2000/svg" xmlns:xlink="http://www.w3.org/1999/xlink">
    <title>Frame</title>
    <defs>
        <path d="M922.288648,604.634159 C926.405516,606.308093 928.452686,610.533781 928.430158,617.311223 C928.429979,617.365255 928.429796,617.39227 928.429633,617.410615 C928.429489,617.42683 928.429297,617.443043 928.429073,617.459257 C928.428822,617.477498 928.428445,617.499059 928.427693,617.542182 L925.125772,806.709073 C924.939787,817.364172 924.846794,822.691721 922.796781,826.767592 C920.991718,830.35645 918.147696,833.3185 914.635213,835.268018 C910.646414,837.481904 905.234868,838.390969 894.562773,837.738675 C884.871119,837.146308 875.476979,835.060439 866.380352,831.481069 C855.375424,827.150814 850.411588,823.616815 845.35984,823.577299 C840.920777,823.542575 836.596897,824.986925 833.068322,827.680554 C829.05359,830.745303 827.029053,836.072734 821.699632,846.043226 C814.132602,860.199928 804.027291,874.849343 791.383701,889.99147 C779.895209,903.750237 773.489168,910.077024 765.952888,910.846332 C759.420997,911.513112 752.978033,908.933012 748.713868,903.940309 C743.792801,898.178471 743.944165,889.506798 744.246894,872.163453 L746.86963,721.90705 C746.880947,721.258648 746.886606,720.934447 746.899041,720.658672 C746.910038,720.414764 746.925559,720.171082 746.945479,719.92774 C746.967994,719.652715 746.991346,719.37392 747.066839,718.820254 C747.674942,714.36047 749.764804,709.235349 753.336426,703.444893 C757.498535,696.697117 761.804232,692.075401 766.253517,689.579745 C766.365527,689.516918 766.421932,689.486218 766.477035,689.455315 C766.526175,689.427756 766.573014,689.396143 766.621919,689.36817 C766.676945,689.336696 766.741741,689.299087 766.871332,689.22387 L905.883967,608.537904 C906.108628,608.407506 906.220958,608.342307 906.314892,608.286404 C906.398727,608.236511 906.486095,608.19244 906.569191,608.141326 C906.662338,608.084029 906.797916,607.997222 907.071696,607.827847 C913.171595,604.054117 918.243913,602.989555 922.288648,604.634159 Z M878.384481,372.86435 C888.106115,375.332865 896.200359,381.299254 912.388848,393.232033 L995.96677,454.838575 C1011.98584,466.646473 1019.99538,472.550422 1022.64699,479.107423 C1024.97967,484.875763 1024.4936,490.98118 1021.25776,496.557421 C1017.5795,502.896059 1008.67637,508.216568 990.870095,518.857585 L508.978685,806.835594 C490.984094,817.58915 481.986799,822.965928 471.926447,824.75202 C463.078098,826.322936 453.699858,825.999412 445.14942,823.828286 C435.427786,821.359771 427.333541,815.393381 411.145052,803.460603 L327.56713,741.854061 C311.548059,730.046163 303.538523,724.142213 300.886914,717.585213 C298.554234,711.816872 299.040298,705.711456 302.276141,700.135215 C305.954397,693.796577 314.857533,688.476068 332.663805,677.835051 L814.555215,389.857042 C832.549806,379.103486 841.547101,373.726708 851.607453,371.940616 C864.802296,369.598034 865.390836,369.565005 878.384481,372.86435 Z M273.295836,503.14118 C319.195834,503.14118 365.145308,513.663441 411.14426,534.707964 C427.09541,546.489755 435.070985,552.380651 437.705476,558.894488 C440.023432,564.625687 439.536738,570.686392 436.313527,576.228137 C432.650163,582.526649 419.64566,593.413778 401.89481,604.043291 L313.920186,656.724002 C295.731221,667.615866 286.636738,673.061798 276.421608,674.874955 C267.438453,676.46944 257.908637,676.143614 249.230059,673.945271 C239.361275,671.445441 231.188853,665.40915 214.844007,653.336568 L135.447411,594.692887 C119.496261,582.911095 111.520686,577.020199 108.886195,570.506362 C106.568239,564.775163 107.054933,558.714459 110.278144,553.172713 C113.941508,546.874201 122.816933,541.559445 140.567784,530.929931 C183.153154,512.404097 227.395837,503.14118 273.295836,503.14118 Z M680.95799,230.573979 C690.61721,233.01053 698.703781,238.905407 714.876923,250.69516 L793.50779,308.014789 C809.740888,319.848249 817.857438,325.764979 820.550659,332.366206 C822.919592,338.172582 822.429857,344.323933 819.151893,349.935501 C815.425201,356.315251 806.413583,361.641089 788.390348,372.292765 L571.470763,498.50208 C553.514095,509.114414 498.441751,543.651481 488.448539,545.410057 C479.657918,546.957005 478.259564,550.087933 461.852682,544.492546 C445.445799,538.89716 422.031143,498.50208 416.168959,449.714191 C410.306774,400.926302 422.031143,365.468583 450.977169,341.880923 L617.43392,247.333546 C635.390587,236.721212 644.368921,231.415044 654.362133,229.656468 C663.152754,228.10952 672.461168,228.430644 680.95799,230.573979 Z M485.414205,87.888169 C495.087596,90.3332507 503.175424,96.2491809 519.351078,108.081041 L599.45688,166.675313 C615.626561,178.502804 623.711402,184.41655 626.393194,191.007611 C628.750965,196.802321 628.26163,202.948619 624.996616,208.549351 C621.282901,214.919777 612.303288,220.244827 594.344064,230.894926 L430.921096,319.783334 C351.084862,344.460991 276.846244,324.483123 212.65424,297.969689 C169.859571,280.294067 183.674712,249.918518 254.099663,206.843043 L421.819034,104.716342 C439.784892,94.0623092 448.767822,88.7352927 458.776483,86.9692103 C467.584834,85.4149291 476.900916,85.736319 485.414205,87.888169 Z" id="path-1"></path>
        <path d="M752.157241,704.89567 C756.200951,698.076283 760.425332,693.380126 764.830384,690.8072 C764.94128,690.742427 764.997141,690.710747 765.051697,690.678887 C765.100348,690.650476 765.146628,690.618049 765.195037,690.589227 C765.249506,690.556798 765.313635,690.518064 765.441894,690.440596 L903.025193,607.340814 C903.247544,607.206515 903.358719,607.139366 903.451662,607.081832 C903.534614,607.030484 903.6212,606.984895 903.703391,606.932338 C903.795523,606.873424 903.929566,606.784264 904.200349,606.610136 C910.233458,602.730524 915.286424,601.577599 919.359245,603.151363 C923.5047,604.753193 925.625307,608.942509 925.721066,615.719312 C925.721829,615.773339 925.722118,615.800353 925.722275,615.818698 C925.722414,615.834912 925.722505,615.851127 925.722564,615.867342 C925.722631,615.885585 925.722631,615.907149 925.722631,615.950279 L925.722631,805.145985 C925.722631,815.802707 925.722631,821.131067 923.744064,825.242095 C922.00191,828.86191 919.210016,831.873144 915.732092,833.883666 C911.782538,836.166829 906.387682,837.1702 895.705828,836.704259 C886.005312,836.281125 876.576199,834.359524 867.418489,830.939457 C856.339663,826.801924 851.314907,823.355094 846.263238,823.403749 C841.824246,823.446503 837.526231,824.966095 834.045204,827.720896 C830.084571,830.855245 828.153319,836.217198 822.998719,846.279182 C815.679909,860.565791 805.831805,875.389337 793.454407,890.749819 C782.207789,904.706992 775.913141,911.144617 768.391435,912.045334 C761.872177,912.826009 755.385164,910.358747 751.034514,905.441224 C746.013638,899.766148 746.013638,891.093155 746.013638,873.747168 L746.013638,723.467877 C746.013638,722.819376 746.013638,722.495125 746.021258,722.219175 C746.027997,721.975112 746.039262,721.731197 746.054933,721.487544 C746.072644,721.212169 746.091126,720.933008 746.156946,720.378109 C746.687122,715.908391 748.68722,710.747578 752.157241,704.89567 Z" id="path-2"></path>
        <filter x="-5.0%" y="-1.5%" width="106.7%" height="93.9%" filterUnits="objectBoundingBox" id="filter-3">
            <feOffset dx="-6" dy="-2" in="SourceAlpha" result="shadowOffsetOuter1"></feOffset>
            <feColorMatrix values="0 0 0 0 0   0 0 0 0 0.080815996   0 0 0 0 0.332902238  0 0 0 0.908884804 0" type="matrix" in="shadowOffsetOuter1"></feColorMatrix>
        </filter>
    </defs>
    <g id="Frame" stroke="none" fill="none" transform="translate(-107, -86)" xlink:href="#path-1">
        <path d="M508.978685,806.835594 C490.984094,817.58915 481.986799,822.965928 471.926447,824.75202 C463.078098,826.322936 453.699858,825.999412 445.14942,823.828286 C435.427786,821.359771 427.333541,815.393381 411.145052,803.460603 L327.56713,741.854061 C311.548059,730.046163 303.538523,724.142213 300.886914,717.585213 C298.554234,711.816872 299.040298,705.711456 302.276141,700.135215 C305.954397,693.796577 314.857533,688.476068 332.663805,677.835051 L814.555215,389.857042 C832.549806,379.103486 841.547101,373.726708 851.607453,371.940616 C864.802296,369.598034 865.390836,369.565005 878.384481,372.86435 C888.106115,375.332865 896.200359,381.299254 912.388848,393.232033 L995.96677,454.838575 C1011.98584,466.646473 1019.99538,472.550422 1022.64699,479.107423 C1024.97967,484.875763 1024.4936,490.98118 1021.25776,496.557421 C1017.5795,502.896059 1008.67637,508.216568 990.870095,518.857585 M411.14426,534.707964 C427.09541,546.489755 435.070985,552.380651 437.705476,558.894488 C440.023432,564.625687 439.536738,570.686392 436.313527,576.228137 C432.650163,582.526649 419.64566,593.413778 401.89481,604.043291 L313.920186,656.724002 C295.731221,667.615866 286.636738,673.061798 276.421608,674.874955 C267.438453,676.46944 257.908637,676.143614 249.230059,673.945271 C239.361275,671.445441 231.188853,665.40915 214.844007,653.336568 L135.447411,594.692887 C119.496261,582.911095 111.520686,577.020199 108.886195,570.506362 C106.568239,564.775163 107.054933,558.714459 110.278144,553.172713 C113.941508,546.874201 122.816933,541.559445 140.567784,530.929931 C183.153154,512.404097 227.395837,503.14118 273.295836,503.14118 C319.195834,503.14118 365.145308,513.663441 411.14426,534.707964 Z M680.95799,230.573979 C690.61721,233.01053 698.703781,238.905407 714.876923,250.69516 L793.50779,308.014789 C809.740888,319.848249 817.857438,325.764979 820.550659,332.366206 C822.919592,338.172582 822.429857,344.323933 819.151893,349.935501 C815.425201,356.315251 806.413583,361.641089 788.390348,372.292765 L571.470763,498.50208 C553.514095,509.114414 498.441751,543.651481 488.448539,545.410057 C479.657918,546.957005 478.259564,550.087933 461.852682,544.492546 C445.445799,538.89716 422.031143,498.50208 416.168959,449.714191 C410.306774,400.926302 422.031143,365.468583 450.977169,341.880923 L617.43392,247.333546 C635.390587,236.721212 644.368921,231.415044 654.362133,229.656468 C663.152754,228.10952 672.461168,228.430644 680.95799,230.573979 Z M485.414205,87.888169 C495.087596,90.3332507 503.175424,96.2491809 519.351078,108.081041 L599.45688,166.675313 C615.626561,178.502804 623.711402,184.41655 626.393194,191.007611 C628.750965,196.802321 628.26163,202.948619 624.996616,208.549351 C621.282901,214.919777 612.303288,220.244827 594.344064,230.894926 L430.921096,319.783334 C351.084862,344.460991 276.846244,324.483123 212.65424,297.969689 C169.859571,280.294067 183.674712,249.918518 254.099663,206.843043 L421.819034,104.716342 C439.784892,94.0623092 448.767822,88.7352927 458.776483,86.9692103 C467.584834,85.4149291 476.900916,85.736319 485.414205,87.888169 Z" id="Combined-Shape" fill="#1D294B" fill-rule="evenodd"></path>
        <g id="Path-2" transform="translate(835.8681, 771.7309) rotate(1) translate(-835.8681, -771.7309)">
            <use fill="black" fill-opacity="1" filter="url(#filter-3)" xlink:href="#path-2"></use>
            <use fill="#4260FA" fill-rule="evenodd" xlink:href="#path-2"></use>
        </g>
    </g>
</svg>