<svg viewBox="0 0 1024 1024" xmlns="http://www.w3.org/2000/svg">
<g>
<path d="M60.0373 1170.12L63.8052 1143.99C124.827 1133.88 171.738 1110.56 204.539 1074.03C229.3 1046.5 247.434 992.835 258.94 913.044L350.708 276.676C357.596 228.914 359.992 192.811 357.898 168.367C355.804 143.924 348.386 123.274 335.646 106.416C313.212 74.9492 275.39 54.7203 222.181 45.7297L225.949 19.6007L239.313 20.4436L339.485 27.1866C375.124 29.4342 410.362 30.558 445.201 30.558C474.42 30.558 509.16 29.2937 549.421 26.7651C589.681 24.2365 620.369 21.8484 641.484 19.6007L727.951 10.3291C758.78 6.95767 790.491 5.27193 823.082 5.27193C880.959 5.27193 932.385 12.0149 977.36 25.5008C1022.33 38.9867 1059.6 58.2323 1089.14 83.2375C1118.69 108.243 1139.92 138.305 1152.84 173.425C1165.76 208.544 1169.13 247.457 1162.98 290.162C1153.41 356.468 1124.46 412.097 1076.12 457.051C1027.77 502.004 962.244 534.595 879.535 554.824C944.869 561.567 1000.76 579.267 1047.19 607.924C1093.63 636.582 1127.14 674.09 1147.71 720.448C1168.27 766.805 1174.38 818.923 1166.04 876.8C1159.23 924.001 1144.14 966.285 1120.77 1003.65C1097.4 1041.02 1066.01 1073.61 1026.6 1101.43C987.19 1129.24 941.466 1150.17 889.43 1164.22C837.394 1178.27 781.594 1185.29 722.031 1185.29C691.126 1185.29 646.819 1182.76 589.109 1177.7C504.67 1170.96 446.839 1166.75 415.615 1165.06C364.886 1162.25 318.45 1160.85 276.306 1160.85C243.153 1160.85 205.905 1161.97 164.561 1164.22L77.0163 1169.28L60.0373 1170.12ZM504.466 548.923L641.011 548.923C721.926 548.923 786.087 532.628 833.492 500.037C865.791 478.684 893.304 449.605 916.03 412.8C938.757 375.994 953.038 337.363 958.872 296.905C965.922 248.019 961.847 204.189 946.647 165.417C931.448 126.645 906.885 96.3019 872.959 74.3873C839.033 52.4727 799.031 41.5154 752.954 41.5154C716.43 41.5154 683.99 48.2583 655.636 61.7443C627.281 75.2302 603.975 94.6162 585.719 119.902C569.149 145.188 556.893 185.365 548.952 240.433L504.466 548.923ZM499.726 581.795L448.554 936.644C438.02 1009.69 447.303 1061.25 476.401 1091.31C505.5 1121.37 560.226 1136.4 640.58 1136.4C732.172 1136.4 805.617 1110.28 860.916 1058.02C915.571 1006.32 948.45 941.982 959.551 865C964.251 832.409 964.532 802.206 960.396 774.391C956.259 746.577 947.844 721.15 935.152 698.112C922.46 675.073 906.071 655.266 885.985 638.689C865.898 622.113 842.134 609.61 814.692 601.181C777.784 588.257 720.839 581.795 643.856 581.795L499.726 581.795ZM781.696 1139.78C835.731 1131.35 884.419 1115.19 927.758 1091.31C971.098 1067.43 1006.22 1037.23 1033.12 1000.7C1060.02 964.178 1076.67 923.72 1083.07 879.329C1092.23 815.832 1079.3 759.36 1044.29 709.912C1009.28 660.463 955.663 623.096 883.451 597.81C972.067 661.306 1008.07 750.65 991.458 865.843C972.497 997.331 902.576 1088.64 781.696 1139.78ZM830.438 532.909C902.47 512.68 960.249 481.213 1003.77 438.507C1047.3 395.802 1073.36 344.668 1081.95 285.105C1090.62 224.98 1079.07 174.548 1047.29 133.81C1015.52 93.0709 964.124 63.711 893.106 45.7297C973.375 108.664 1006.18 190.984 991.509 292.691C975.951 400.578 922.261 480.651 830.438 532.909ZM185.324 1125.45C230.526 1119.83 268.017 1117.02 297.798 1117.02C324.77 1117.02 359.566 1119.27 402.185 1123.76L422.171 1125.45L395.952 1102.69C378.873 1088.64 368.272 1077.4 364.149 1068.97C360.026 1060.55 359.18 1047.9 361.611 1031.05L365.622 1003.23C366.352 998.173 366.697 994.802 366.659 993.116C366.622 991.43 366.684 990.026 366.846 988.902L480.492 200.818C480.735 199.132 481.119 197.446 481.643 195.761C482.167 194.075 482.753 190.984 483.401 186.489L487.412 158.674C489.114 146.874 491.434 137.603 494.373 130.86C497.312 124.117 502.017 117.795 508.487 111.895C514.957 105.995 526.267 97.7067 542.416 87.0304L591.95 53.3155L561.242 55.8442C517.407 59.7776 479.195 61.7443 446.604 61.7443C409.517 61.7443 368.943 58.6537 324.882 52.4727L364.57 87.0304C382.13 101.64 392.852 113.019 396.734 121.167C400.616 129.314 401.342 141.817 398.911 158.674L394.9 186.489L392.834 200.818L279.187 988.902L277.121 1003.23L273.11 1031.05C270.679 1047.9 266.347 1060.41 260.115 1068.55C253.883 1076.7 239.88 1088.08 218.106 1102.69L185.324 1125.45Z"  fill-rule="nonzero" fill="current" />
</g>
</svg>
