<?xml version="1.0" encoding="UTF-8" standalone="no"?>
<!DOCTYPE svg PUBLIC "-//W3C//DTD SVG 1.1//EN" "http://www.w3.org/Graphics/SVG/1.1/DTD/svg11.dtd">
<!-- Created with Vectornator (http://vectornator.io/) -->
<svg viewBox="0 0 1024 1024">
<defs/>
<g id="Layer-1">
<g opacity="1">
<path d="M599.5 835L599.5 835C754.416 835 880 716.355 880 570C880 423.645 754.416 305 599.5 305L319 305L319 835L599.5 835Z" fill="#c9a6f9" fill-opacity="0.777734" fill-rule="evenodd" opacity="0" stroke="none"/>
<path d="M596.084 826L596.084 826C752.887 826 880 703.774 880 553C880 402.226 752.887 280 596.084 280L312.169 280L312.169 826L596.084 826Z" fill="#c9a6f9" fill-opacity="0.777734" fill-rule="evenodd" opacity="0.5" stroke="none"/>
</g>
<path d="M251.831 792L271.317 794.963C271.317 794.963 289.162 804.215 283.41 821.77C280.269 831.354 272.017 832 271.831 832C271.494 832 202.493 830.477 164.345 786.782C133.979 752 131.831 706.936 131.831 692C131.831 646.338 131.831 232 131.831 232C131.831 232 131.831 172 173.751 132C203.943 103.19 233.168 95.1303 251.831 92.8757C255.353 92.4502 263.268 90.9422 268.268 95.7233C273.268 100.504 271.831 112 271.831 112L271.831 112C271.831 112 272.227 552 272.029 572C272.082 577.314 273.173 585.8 268.507 589.689C263.84 593.579 173.751 589.689 173.751 699.5C173.751 780 251.831 792 251.831 792Z" fill="#2e086d" fill-rule="evenodd" opacity="1" stroke="none"/>
<path d="M363.239 800C350.405 800 340 808.954 340 820C340 831.046 350.405 840 363.239 840L616.761 840C629.595 840 640 831.046 640 820C640 808.954 629.595 800 616.761 800L363.239 800Z" fill="#2e086d" fill-rule="nonzero" opacity="1" stroke="none"/>
<path d="M338.97 740C312.182 739.886 312.593 742.847 310.627 760.049C310.64 759.646 304.869 932 308.514 932C348.514 932 405.803 877.363 405.803 877.363C405.803 877.363 468.514 932 508.514 932C512.649 932 507.628 808.581 505.475 759.646C504.942 747.546 498.891 744.427 498.891 744.427C493.339 739.315 480.29 740 480.29 740L378.97 740C378.97 740 346.719 740.033 338.97 740Z" fill="#2e086d" fill-rule="evenodd" opacity="1" stroke="none"/>
<path d="M566.084 592.312L566.084 592.312C706.318 592.312 820 479.26 820 339.802C820 200.344 706.318 92.3124 566.084 92.3124L322.575 92.3124C316.828 92.3124 312.169 96.9715 312.169 102.719L312.169 582.552C312.169 587.942 316.539 592.312 321.929 592.312L566.084 592.312Z" fill="#2e086d" fill-rule="evenodd" opacity="1" stroke="none"/>
<path d="M270.532 680C256.598 680 245.302 688.954 245.302 700C245.302 711.046 256.598 720 270.532 720L545.77 720C559.704 720 571 711.046 571 700C571 688.954 559.704 680 545.77 680L270.532 680Z" fill="#2e086d" fill-rule="nonzero" opacity="1" stroke="none"/>
</g>
</svg>
